# xmcd CD database file
#
# Track frame offsets:
#	150
#	25593
#	36222
#	50229
#	64127
#	96480
#	108519
#	121585
#	140622
#	146646
#	161766
#	178261
#	228292
#	239044
#	268867
#	280942
#	301267
#
# Disc length: 4180 seconds
#
# Revision: 0
# Processed by: cddbd v1.4PL0 Copyright (c) Steve Scherf et al.
# Submitted via: CDex 1.50
#
DISCID=01105211
DTITLE=Thierry Pecou - Une rose ...a circle of kisses
DYEAR=1900
DGENRE=Jazz
TTITLE0=Comme à la ronde
TTITLE1=Chant Apache
TTITLE2=Swing-line
TTITLE3=Apalachian rose
TTITLE4=L'homme d'outre-mer
TTITLE5=Square fiddle
TTITLE6=Bayou valse
TTITLE7=Moody Ida
TTITLE8=Stride guirlande
TTITLE9=Comedy
TTITLE10=Valse Cajun
TTITLE11=New-Orleans
TTITLE12=Black and White
TTITLE13=Black and White Spiritual
TTITLE14=Blue plainte
TTITLE15=Toklas Toccata
TTITLE16=Autobiographie du jazz
EXTD=
EXTT0=
EXTT1=
EXTT2=
EXTT3=
EXTT4=
EXTT5=
EXTT6=
EXTT7=
EXTT8=
EXTT9=
EXTT10=
EXTT11=
EXTT12=
EXTT13=
EXTT14=
EXTT15=
EXTT16=
PLAYORDER=
